<svg width="285" height="231" viewBox="0 0 285 231" fill="none" xmlns="http://www.w3.org/2000/svg">
<rect width="285" height="231" fill="#F5F4F0"/>
<path d="M259 115.179L251.5 123.237V107.122L259 115.179Z" fill="#222222"/>
<path d="M27.602 120.912V108.132H31.94C33.296 108.132 34.424 108.42 35.324 108.996C36.236 109.56 36.92 110.328 37.376 111.3C37.832 112.26 38.06 113.328 38.06 114.504C38.06 115.8 37.808 116.928 37.304 117.888C36.8 118.848 36.092 119.592 35.18 120.12C34.268 120.648 33.188 120.912 31.94 120.912H27.602ZM36.8 114.504C36.8 113.484 36.608 112.578 36.224 111.786C35.852 110.994 35.3 110.376 34.568 109.932C33.848 109.476 32.972 109.248 31.94 109.248H28.862V119.796H31.94C32.996 119.796 33.884 119.562 34.604 119.094C35.324 118.626 35.87 117.996 36.242 117.204C36.614 116.412 36.8 115.512 36.8 114.504ZM40.2172 109.572V107.772H41.4412V109.572H40.2172ZM40.2172 120.912V111.534H41.4412V120.912H40.2172ZM47.2151 121.092C46.4471 121.092 45.7331 120.966 45.0731 120.714C44.4251 120.45 43.8551 120.066 43.3631 119.562L43.8671 118.698C44.3951 119.19 44.9231 119.55 45.4511 119.778C45.9911 119.994 46.5611 120.102 47.1611 120.102C47.8811 120.102 48.4691 119.958 48.9251 119.67C49.3931 119.37 49.6271 118.944 49.6271 118.392C49.6271 118.02 49.5131 117.738 49.2851 117.546C49.0691 117.342 48.7511 117.18 48.3311 117.06C47.9231 116.94 47.4311 116.802 46.8551 116.646C46.2071 116.466 45.6611 116.28 45.2171 116.088C44.7851 115.884 44.4551 115.632 44.2271 115.332C44.0111 115.02 43.9031 114.618 43.9031 114.126C43.9031 113.526 44.0531 113.022 44.3531 112.614C44.6651 112.206 45.0851 111.9 45.6131 111.696C46.1531 111.48 46.7531 111.372 47.4131 111.372C48.1331 111.372 48.7691 111.486 49.3211 111.714C49.8731 111.942 50.3231 112.26 50.6711 112.668L50.0771 113.496C49.7531 113.112 49.3511 112.83 48.8711 112.65C48.4031 112.458 47.8931 112.362 47.3411 112.362C46.9571 112.362 46.5911 112.416 46.2431 112.524C45.8951 112.62 45.6071 112.788 45.3791 113.028C45.1631 113.256 45.0551 113.574 45.0551 113.982C45.0551 114.486 45.2411 114.834 45.6131 115.026C45.9851 115.218 46.5491 115.422 47.3051 115.638C48.0131 115.83 48.6311 116.022 49.1591 116.214C49.6871 116.406 50.0951 116.664 50.3831 116.988C50.6711 117.3 50.8151 117.738 50.8151 118.302C50.8151 119.178 50.4851 119.862 49.8251 120.354C49.1651 120.846 48.2951 121.092 47.2151 121.092ZM56.9063 121.092C55.9943 121.092 55.1843 120.87 54.4763 120.426C53.7683 119.97 53.2103 119.376 52.8023 118.644C52.3943 117.9 52.1903 117.084 52.1903 116.196C52.1903 115.308 52.3883 114.504 52.7843 113.784C53.1803 113.052 53.7323 112.47 54.4403 112.038C55.1483 111.594 55.9643 111.372 56.8883 111.372C57.7643 111.372 58.5323 111.576 59.1923 111.984C59.8643 112.38 60.3683 112.92 60.7043 113.604L59.5163 113.982C59.2523 113.502 58.8803 113.13 58.4003 112.866C57.9323 112.59 57.4103 112.452 56.8343 112.452C56.1983 112.452 55.6223 112.614 55.1063 112.938C54.6023 113.262 54.1943 113.712 53.8823 114.288C53.5823 114.852 53.4323 115.488 53.4323 116.196C53.4323 116.904 53.5883 117.546 53.9003 118.122C54.2123 118.698 54.6263 119.16 55.1423 119.508C55.6583 119.844 56.2283 120.012 56.8523 120.012C57.2603 120.012 57.6563 119.94 58.0403 119.796C58.4243 119.652 58.7543 119.46 59.0303 119.22C59.3063 118.968 59.4923 118.698 59.5883 118.41L60.7943 118.77C60.6263 119.214 60.3503 119.616 59.9663 119.976C59.5823 120.324 59.1263 120.6 58.5983 120.804C58.0703 120.996 57.5063 121.092 56.9063 121.092ZM66.6253 121.092C65.7253 121.092 64.9213 120.87 64.2133 120.426C63.5173 119.982 62.9713 119.394 62.5753 118.662C62.1793 117.918 61.9813 117.114 61.9813 116.25C61.9813 115.374 62.1793 114.57 62.5753 113.838C62.9833 113.094 63.5353 112.5 64.2313 112.056C64.9393 111.6 65.7373 111.372 66.6253 111.372C67.5253 111.372 68.3233 111.6 69.0193 112.056C69.7273 112.5 70.2793 113.094 70.6753 113.838C71.0833 114.57 71.2873 115.374 71.2873 116.25C71.2873 117.114 71.0893 117.918 70.6933 118.662C70.2973 119.394 69.7453 119.982 69.0373 120.426C68.3413 120.87 67.5373 121.092 66.6253 121.092ZM63.2233 116.268C63.2233 116.964 63.3733 117.6 63.6733 118.176C63.9853 118.74 64.3993 119.19 64.9153 119.526C65.4313 119.85 66.0013 120.012 66.6253 120.012C67.2493 120.012 67.8193 119.844 68.3353 119.508C68.8513 119.172 69.2653 118.716 69.5773 118.14C69.8893 117.564 70.0453 116.928 70.0453 116.232C70.0453 115.536 69.8893 114.9 69.5773 114.324C69.2653 113.748 68.8513 113.292 68.3353 112.956C67.8193 112.62 67.2493 112.452 66.6253 112.452C66.0133 112.452 65.4493 112.626 64.9333 112.974C64.4173 113.31 64.0033 113.766 63.6913 114.342C63.3793 114.918 63.2233 115.56 63.2233 116.268ZM75.808 120.912L72.01 111.534H73.288L76.492 119.688L79.714 111.534H80.92L77.122 120.912H75.808ZM86.3492 121.092C85.4492 121.092 84.6452 120.87 83.9372 120.426C83.2292 119.982 82.6712 119.388 82.2632 118.644C81.8552 117.9 81.6512 117.084 81.6512 116.196C81.6512 115.32 81.8492 114.516 82.2452 113.784C82.6532 113.052 83.2112 112.47 83.9192 112.038C84.6272 111.594 85.4312 111.372 86.3312 111.372C87.2552 111.372 88.0652 111.594 88.7612 112.038C89.4572 112.482 89.9972 113.07 90.3812 113.802C90.7772 114.522 90.9752 115.314 90.9752 116.178C90.9752 116.37 90.9692 116.532 90.9572 116.664H82.9292C82.9892 117.336 83.1812 117.936 83.5052 118.464C83.8292 118.98 84.2432 119.394 84.7472 119.706C85.2512 120.006 85.8032 120.156 86.4032 120.156C87.0152 120.156 87.5912 120 88.1312 119.688C88.6712 119.376 89.0552 118.968 89.2832 118.464L90.3452 118.752C90.1532 119.208 89.8532 119.616 89.4452 119.976C89.0492 120.324 88.5872 120.6 88.0592 120.804C87.5312 120.996 86.9612 121.092 86.3492 121.092ZM82.8932 115.782H89.8232C89.7752 115.11 89.5892 114.516 89.2652 114C88.9412 113.472 88.5272 113.064 88.0232 112.776C87.5192 112.476 86.9612 112.326 86.3492 112.326C85.7372 112.326 85.1792 112.476 84.6752 112.776C84.1712 113.064 83.7572 113.472 83.4332 114C83.1212 114.516 82.9412 115.11 82.8932 115.782ZM97.5437 112.614C96.7277 112.638 96.0077 112.866 95.3837 113.298C94.7717 113.73 94.3397 114.324 94.0877 115.08V120.912H92.8637V111.534H94.0157V113.784C94.3397 113.124 94.7657 112.59 95.2937 112.182C95.8337 111.774 96.4037 111.546 97.0037 111.498C97.1237 111.486 97.2257 111.48 97.3097 111.48C97.3937 111.48 97.4717 111.486 97.5437 111.498V112.614ZM103.394 107.772H104.618V118.788C104.618 119.256 104.696 119.562 104.852 119.706C105.02 119.85 105.23 119.922 105.482 119.922C105.698 119.922 105.914 119.898 106.13 119.85C106.358 119.802 106.544 119.754 106.688 119.706L106.904 120.696C106.676 120.792 106.394 120.87 106.058 120.93C105.734 120.99 105.452 121.02 105.212 121.02C104.66 121.02 104.216 120.858 103.88 120.534C103.556 120.21 103.394 119.766 103.394 119.202V107.772ZM107.489 118.212C107.489 117.636 107.657 117.138 107.993 116.718C108.329 116.286 108.791 115.95 109.379 115.71C109.979 115.47 110.669 115.35 111.449 115.35C111.905 115.35 112.379 115.392 112.871 115.476C113.363 115.548 113.801 115.65 114.185 115.782V114.99C114.185 114.198 113.951 113.568 113.483 113.1C113.015 112.632 112.367 112.398 111.539 112.398C111.047 112.398 110.555 112.494 110.063 112.686C109.571 112.866 109.061 113.136 108.533 113.496L108.065 112.632C108.677 112.212 109.277 111.9 109.865 111.696C110.453 111.48 111.053 111.372 111.665 111.372C112.817 111.372 113.729 111.702 114.401 112.362C115.073 113.022 115.409 113.934 115.409 115.098V119.436C115.409 119.76 115.559 119.928 115.859 119.94V120.912C115.595 120.948 115.409 120.96 115.301 120.948C115.001 120.936 114.773 120.84 114.617 120.66C114.461 120.48 114.377 120.288 114.365 120.084L114.347 119.4C113.927 119.94 113.381 120.36 112.709 120.66C112.037 120.948 111.353 121.092 110.657 121.092C110.045 121.092 109.499 120.966 109.019 120.714C108.539 120.45 108.161 120.102 107.885 119.67C107.621 119.226 107.489 118.74 107.489 118.212ZM113.771 118.932C114.047 118.608 114.185 118.308 114.185 118.032V116.664C113.357 116.34 112.493 116.178 111.593 116.178C110.717 116.178 110.009 116.352 109.469 116.7C108.929 117.048 108.659 117.522 108.659 118.122C108.659 118.638 108.857 119.106 109.253 119.526C109.661 119.946 110.225 120.156 110.945 120.156C111.533 120.156 112.079 120.042 112.583 119.814C113.099 119.586 113.495 119.292 113.771 118.932ZM122.483 120.462C122.339 120.522 122.075 120.63 121.691 120.786C121.307 120.942 120.863 121.02 120.359 121.02C119.831 121.02 119.369 120.87 118.973 120.57C118.577 120.27 118.379 119.82 118.379 119.22V112.506H117.083V111.534H118.379V108.366H119.603V111.534H121.763V112.506H119.603V118.878C119.627 119.226 119.747 119.484 119.963 119.652C120.191 119.808 120.449 119.886 120.737 119.886C121.073 119.886 121.373 119.832 121.637 119.724C121.913 119.604 122.087 119.52 122.159 119.472L122.483 120.462ZM127.904 121.092C127.004 121.092 126.2 120.87 125.492 120.426C124.784 119.982 124.226 119.388 123.818 118.644C123.41 117.9 123.206 117.084 123.206 116.196C123.206 115.32 123.404 114.516 123.8 113.784C124.208 113.052 124.766 112.47 125.474 112.038C126.182 111.594 126.986 111.372 127.886 111.372C128.81 111.372 129.62 111.594 130.316 112.038C131.012 112.482 131.552 113.07 131.936 113.802C132.332 114.522 132.53 115.314 132.53 116.178C132.53 116.37 132.524 116.532 132.512 116.664H124.484C124.544 117.336 124.736 117.936 125.06 118.464C125.384 118.98 125.798 119.394 126.302 119.706C126.806 120.006 127.358 120.156 127.958 120.156C128.57 120.156 129.146 120 129.686 119.688C130.226 119.376 130.61 118.968 130.838 118.464L131.9 118.752C131.708 119.208 131.408 119.616 131 119.976C130.604 120.324 130.142 120.6 129.614 120.804C129.086 120.996 128.516 121.092 127.904 121.092ZM124.448 115.782H131.378C131.33 115.11 131.144 114.516 130.82 114C130.496 113.472 130.082 113.064 129.578 112.776C129.074 112.476 128.516 112.326 127.904 112.326C127.292 112.326 126.734 112.476 126.23 112.776C125.726 113.064 125.312 113.472 124.988 114C124.676 114.516 124.496 115.11 124.448 115.782ZM137.496 121.092C136.728 121.092 136.014 120.966 135.354 120.714C134.706 120.45 134.136 120.066 133.644 119.562L134.148 118.698C134.676 119.19 135.204 119.55 135.732 119.778C136.272 119.994 136.842 120.102 137.442 120.102C138.162 120.102 138.75 119.958 139.206 119.67C139.674 119.37 139.908 118.944 139.908 118.392C139.908 118.02 139.794 117.738 139.566 117.546C139.35 117.342 139.032 117.18 138.612 117.06C138.204 116.94 137.712 116.802 137.136 116.646C136.488 116.466 135.942 116.28 135.498 116.088C135.066 115.884 134.736 115.632 134.508 115.332C134.292 115.02 134.184 114.618 134.184 114.126C134.184 113.526 134.334 113.022 134.634 112.614C134.946 112.206 135.366 111.9 135.894 111.696C136.434 111.48 137.034 111.372 137.694 111.372C138.414 111.372 139.05 111.486 139.602 111.714C140.154 111.942 140.604 112.26 140.952 112.668L140.358 113.496C140.034 113.112 139.632 112.83 139.152 112.65C138.684 112.458 138.174 112.362 137.622 112.362C137.238 112.362 136.872 112.416 136.524 112.524C136.176 112.62 135.888 112.788 135.66 113.028C135.444 113.256 135.336 113.574 135.336 113.982C135.336 114.486 135.522 114.834 135.894 115.026C136.266 115.218 136.83 115.422 137.586 115.638C138.294 115.83 138.912 116.022 139.44 116.214C139.968 116.406 140.376 116.664 140.664 116.988C140.952 117.3 141.096 117.738 141.096 118.302C141.096 119.178 140.766 119.862 140.106 120.354C139.446 120.846 138.576 121.092 137.496 121.092ZM147.62 120.462C147.476 120.522 147.212 120.63 146.828 120.786C146.444 120.942 146 121.02 145.496 121.02C144.968 121.02 144.506 120.87 144.11 120.57C143.714 120.27 143.516 119.82 143.516 119.22V112.506H142.22V111.534H143.516V108.366H144.74V111.534H146.9V112.506H144.74V118.878C144.764 119.226 144.884 119.484 145.1 119.652C145.328 119.808 145.586 119.886 145.874 119.886C146.21 119.886 146.51 119.832 146.774 119.724C147.05 119.604 147.224 119.52 147.296 119.472L147.62 120.462ZM157.805 121.092C156.893 121.092 156.083 120.87 155.375 120.426C154.667 119.97 154.109 119.376 153.701 118.644C153.293 117.9 153.089 117.084 153.089 116.196C153.089 115.308 153.287 114.504 153.683 113.784C154.079 113.052 154.631 112.47 155.339 112.038C156.047 111.594 156.863 111.372 157.787 111.372C158.663 111.372 159.431 111.576 160.091 111.984C160.763 112.38 161.267 112.92 161.603 113.604L160.415 113.982C160.151 113.502 159.779 113.13 159.299 112.866C158.831 112.59 158.309 112.452 157.733 112.452C157.097 112.452 156.521 112.614 156.005 112.938C155.501 113.262 155.093 113.712 154.781 114.288C154.481 114.852 154.331 115.488 154.331 116.196C154.331 116.904 154.487 117.546 154.799 118.122C155.111 118.698 155.525 119.16 156.041 119.508C156.557 119.844 157.127 120.012 157.751 120.012C158.159 120.012 158.555 119.94 158.939 119.796C159.323 119.652 159.653 119.46 159.929 119.22C160.205 118.968 160.391 118.698 160.487 118.41L161.693 118.77C161.525 119.214 161.249 119.616 160.865 119.976C160.481 120.324 160.025 120.6 159.497 120.804C158.969 120.996 158.405 121.092 157.805 121.092ZM167.524 121.092C166.624 121.092 165.82 120.87 165.112 120.426C164.416 119.982 163.87 119.394 163.474 118.662C163.078 117.918 162.88 117.114 162.88 116.25C162.88 115.374 163.078 114.57 163.474 113.838C163.882 113.094 164.434 112.5 165.13 112.056C165.838 111.6 166.636 111.372 167.524 111.372C168.424 111.372 169.222 111.6 169.918 112.056C170.626 112.5 171.178 113.094 171.574 113.838C171.982 114.57 172.186 115.374 172.186 116.25C172.186 117.114 171.988 117.918 171.592 118.662C171.196 119.394 170.644 119.982 169.936 120.426C169.24 120.87 168.436 121.092 167.524 121.092ZM164.122 116.268C164.122 116.964 164.272 117.6 164.572 118.176C164.884 118.74 165.298 119.19 165.814 119.526C166.33 119.85 166.9 120.012 167.524 120.012C168.148 120.012 168.718 119.844 169.234 119.508C169.75 119.172 170.164 118.716 170.476 118.14C170.788 117.564 170.944 116.928 170.944 116.232C170.944 115.536 170.788 114.9 170.476 114.324C170.164 113.748 169.75 113.292 169.234 112.956C168.718 112.62 168.148 112.452 167.524 112.452C166.912 112.452 166.348 112.626 165.832 112.974C165.316 113.31 164.902 113.766 164.59 114.342C164.278 114.918 164.122 115.56 164.122 116.268ZM174.287 107.772H175.511V118.788C175.511 119.256 175.589 119.562 175.745 119.706C175.913 119.85 176.123 119.922 176.375 119.922C176.591 119.922 176.807 119.898 177.023 119.85C177.251 119.802 177.437 119.754 177.581 119.706L177.797 120.696C177.569 120.792 177.287 120.87 176.951 120.93C176.627 120.99 176.345 121.02 176.105 121.02C175.553 121.02 175.109 120.858 174.773 120.534C174.449 120.21 174.287 119.766 174.287 119.202V107.772ZM179.191 107.772H180.415V118.788C180.415 119.256 180.493 119.562 180.649 119.706C180.817 119.85 181.027 119.922 181.279 119.922C181.495 119.922 181.711 119.898 181.927 119.85C182.155 119.802 182.341 119.754 182.485 119.706L182.701 120.696C182.473 120.792 182.191 120.87 181.855 120.93C181.531 120.99 181.249 121.02 181.009 121.02C180.457 121.02 180.013 120.858 179.677 120.534C179.353 120.21 179.191 119.766 179.191 119.202V107.772ZM188.091 121.092C187.191 121.092 186.387 120.87 185.679 120.426C184.971 119.982 184.413 119.388 184.005 118.644C183.597 117.9 183.393 117.084 183.393 116.196C183.393 115.32 183.591 114.516 183.987 113.784C184.395 113.052 184.953 112.47 185.661 112.038C186.369 111.594 187.173 111.372 188.073 111.372C188.997 111.372 189.807 111.594 190.503 112.038C191.199 112.482 191.739 113.07 192.123 113.802C192.519 114.522 192.717 115.314 192.717 116.178C192.717 116.37 192.711 116.532 192.699 116.664H184.671C184.731 117.336 184.923 117.936 185.247 118.464C185.571 118.98 185.985 119.394 186.489 119.706C186.993 120.006 187.545 120.156 188.145 120.156C188.757 120.156 189.333 120 189.873 119.688C190.413 119.376 190.797 118.968 191.025 118.464L192.087 118.752C191.895 119.208 191.595 119.616 191.187 119.976C190.791 120.324 190.329 120.6 189.801 120.804C189.273 120.996 188.703 121.092 188.091 121.092ZM184.635 115.782H191.565C191.517 115.11 191.331 114.516 191.007 114C190.683 113.472 190.269 113.064 189.765 112.776C189.261 112.476 188.703 112.326 188.091 112.326C187.479 112.326 186.921 112.476 186.417 112.776C185.913 113.064 185.499 113.472 185.175 114C184.863 114.516 184.683 115.11 184.635 115.782ZM198.674 121.092C197.762 121.092 196.952 120.87 196.244 120.426C195.536 119.97 194.978 119.376 194.57 118.644C194.162 117.9 193.958 117.084 193.958 116.196C193.958 115.308 194.156 114.504 194.552 113.784C194.948 113.052 195.5 112.47 196.208 112.038C196.916 111.594 197.732 111.372 198.656 111.372C199.532 111.372 200.3 111.576 200.96 111.984C201.632 112.38 202.136 112.92 202.472 113.604L201.284 113.982C201.02 113.502 200.648 113.13 200.168 112.866C199.7 112.59 199.178 112.452 198.602 112.452C197.966 112.452 197.39 112.614 196.874 112.938C196.37 113.262 195.962 113.712 195.65 114.288C195.35 114.852 195.2 115.488 195.2 116.196C195.2 116.904 195.356 117.546 195.668 118.122C195.98 118.698 196.394 119.16 196.91 119.508C197.426 119.844 197.996 120.012 198.62 120.012C199.028 120.012 199.424 119.94 199.808 119.796C200.192 119.652 200.522 119.46 200.798 119.22C201.074 118.968 201.26 118.698 201.356 118.41L202.562 118.77C202.394 119.214 202.118 119.616 201.734 119.976C201.35 120.324 200.894 120.6 200.366 120.804C199.838 120.996 199.274 121.092 198.674 121.092ZM208.985 120.462C208.841 120.522 208.577 120.63 208.193 120.786C207.809 120.942 207.365 121.02 206.861 121.02C206.333 121.02 205.871 120.87 205.475 120.57C205.079 120.27 204.881 119.82 204.881 119.22V112.506H203.585V111.534H204.881V108.366H206.105V111.534H208.265V112.506H206.105V118.878C206.129 119.226 206.249 119.484 206.465 119.652C206.693 119.808 206.951 119.886 207.239 119.886C207.575 119.886 207.875 119.832 208.139 119.724C208.415 119.604 208.589 119.52 208.661 119.472L208.985 120.462ZM210.514 109.572V107.772H211.738V109.572H210.514ZM210.514 120.912V111.534H211.738V120.912H210.514ZM218.43 121.092C217.53 121.092 216.726 120.87 216.018 120.426C215.322 119.982 214.776 119.394 214.38 118.662C213.984 117.918 213.786 117.114 213.786 116.25C213.786 115.374 213.984 114.57 214.38 113.838C214.788 113.094 215.34 112.5 216.036 112.056C216.744 111.6 217.542 111.372 218.43 111.372C219.33 111.372 220.128 111.6 220.824 112.056C221.532 112.5 222.084 113.094 222.48 113.838C222.888 114.57 223.092 115.374 223.092 116.25C223.092 117.114 222.894 117.918 222.498 118.662C222.102 119.394 221.55 119.982 220.842 120.426C220.146 120.87 219.342 121.092 218.43 121.092ZM215.028 116.268C215.028 116.964 215.178 117.6 215.478 118.176C215.79 118.74 216.204 119.19 216.72 119.526C217.236 119.85 217.806 120.012 218.43 120.012C219.054 120.012 219.624 119.844 220.14 119.508C220.656 119.172 221.07 118.716 221.382 118.14C221.694 117.564 221.85 116.928 221.85 116.232C221.85 115.536 221.694 114.9 221.382 114.324C221.07 113.748 220.656 113.292 220.14 112.956C219.624 112.62 219.054 112.452 218.43 112.452C217.818 112.452 217.254 112.626 216.738 112.974C216.222 113.31 215.808 113.766 215.496 114.342C215.184 114.918 215.028 115.56 215.028 116.268ZM233.023 120.912H231.799V115.674C231.799 114.57 231.631 113.766 231.295 113.262C230.971 112.746 230.467 112.488 229.783 112.488C229.303 112.488 228.829 112.608 228.361 112.848C227.893 113.076 227.479 113.394 227.119 113.802C226.771 114.198 226.519 114.654 226.363 115.17V120.912H225.139V111.534H226.255V113.658C226.627 112.974 227.173 112.422 227.893 112.002C228.613 111.582 229.393 111.372 230.233 111.372C230.929 111.372 231.481 111.54 231.889 111.876C232.297 112.2 232.585 112.668 232.753 113.28C232.933 113.88 233.023 114.594 233.023 115.422V120.912Z" fill="#222222"/>
<path d="M26 123.162H234.283V124.062H26V123.162Z" fill="#222222"/>
</svg>
