<svg width="25" height="28" viewBox="0 0 25 28" fill="none" xmlns="http://www.w3.org/2000/svg">
<path fill-rule="evenodd" clip-rule="evenodd" d="M18.1671 3.03365C16.8387 1.6825 14.9641 0.9375 12.7766 0.9375C10.5892 0.9375 8.71451 1.6825 7.38618 3.03365C6.05886 4.38374 5.33022 6.28475 5.33022 8.5C5.33022 11.4824 6.62874 13.4046 8.23583 14.5585C8.54816 14.7827 8.87094 14.9772 9.19656 15.145C7.40059 15.6384 5.9423 16.4988 4.75499 17.5659C2.87762 19.2532 1.71403 21.424 0.930084 23.3679C0.788074 23.72 0.958409 24.1205 1.31055 24.2626C1.66268 24.4046 2.06328 24.2343 2.20529 23.8821C2.95146 22.0319 4.01714 20.0778 5.67411 18.5885C7.31444 17.1144 9.57026 16.0625 12.7766 16.0625C15.7741 16.0625 17.9381 16.9817 19.5445 18.3009C21.1641 19.631 22.255 21.3997 23.0366 23.1481C23.558 24.3147 22.6428 25.6875 21.2064 25.6875H5.34184C4.96215 25.6875 4.65434 25.9954 4.65434 26.375C4.65434 26.7546 4.96215 27.0625 5.34184 27.0625H21.2064C23.4781 27.0625 25.2836 24.8058 24.2918 22.5871C23.4621 20.7309 22.2619 18.7532 20.417 17.2383C19.322 16.339 18.013 15.6138 16.4456 15.1697C17.284 14.7062 17.973 14.091 18.5215 13.3938C19.7078 11.8853 20.223 10.0127 20.223 8.5C20.223 6.28475 19.4944 4.38374 18.1671 3.03365ZM17.1866 3.9976C18.2249 5.05376 18.848 6.59025 18.848 8.5C18.848 9.73728 18.4171 11.3022 17.4406 12.5437C16.4829 13.7614 14.9885 14.6875 12.7766 14.6875C11.882 14.6875 10.3387 14.3755 9.03779 13.4415C7.77233 12.5329 6.70522 11.0177 6.70522 8.5C6.70522 6.59025 7.32837 5.05376 8.36669 3.9976C9.40398 2.9425 10.9088 2.3125 12.7766 2.3125C14.6445 2.3125 16.1493 2.9425 17.1866 3.9976Z" fill="#222222"/>
</svg>
