<svg width="369" height="47" viewBox="0 0 369 47" fill="none" xmlns="http://www.w3.org/2000/svg">
<rect width="368" height="47" transform="translate(0.492188)" fill="#222222"/>
<path d="M125.879 22.782C126.67 22.907 127.389 23.2299 128.035 23.7507C128.701 24.2715 129.222 24.9172 129.597 25.688C129.993 26.4588 130.191 27.2817 130.191 28.1566C130.191 29.2607 129.91 30.2607 129.347 31.1564C128.785 32.0314 127.962 32.7292 126.878 33.25C125.816 33.75 124.556 34 123.097 34H114.973V12.2201H122.785C124.264 12.2201 125.524 12.4701 126.566 12.9701C127.608 13.4492 128.389 14.1054 128.91 14.9387C129.43 15.772 129.691 16.7094 129.691 17.751C129.691 19.0426 129.337 20.1155 128.628 20.9696C127.941 21.8029 127.024 22.407 125.879 22.782ZM117.817 21.6258H122.597C123.931 21.6258 124.962 21.3133 125.691 20.6884C126.42 20.0634 126.785 19.1989 126.785 18.0948C126.785 16.9907 126.42 16.1261 125.691 15.5012C124.962 14.8762 123.91 14.5637 122.535 14.5637H117.817V21.6258ZM122.847 31.6564C124.264 31.6564 125.368 31.3231 126.16 30.6565C126.951 29.9898 127.347 29.0628 127.347 27.8754C127.347 26.6671 126.931 25.7193 126.097 25.0318C125.264 24.3235 124.149 23.9694 122.754 23.9694H117.817V31.6564H122.847ZM136.918 12.2201V26.0005C136.918 27.9379 137.387 29.3753 138.324 30.3127C139.282 31.2502 140.605 31.7189 142.293 31.7189C143.959 31.7189 145.261 31.2502 146.199 30.3127C147.157 29.3753 147.636 27.9379 147.636 26.0005V12.2201H150.479V25.9693C150.479 27.7816 150.115 29.3128 149.386 30.5627C148.657 31.7918 147.667 32.7084 146.417 33.3125C145.188 33.9167 143.803 34.2187 142.261 34.2187C140.72 34.2187 139.324 33.9167 138.074 33.3125C136.845 32.7084 135.866 31.7918 135.137 30.5627C134.428 29.3128 134.074 27.7816 134.074 25.9693V12.2201H136.918ZM170.472 12.2201L163.379 25.7818V34H160.535V25.7818L153.411 12.2201H156.567L161.941 23.2507L167.316 12.2201H170.472ZM198.926 34H196.083L184.646 16.6574V34H181.802V12.1889H184.646L196.083 29.5003V12.1889H198.926V34ZM213.648 34.2187C211.627 34.2187 209.783 33.75 208.117 32.8126C206.45 31.8543 205.128 30.5315 204.148 28.8441C203.19 27.1359 202.711 25.2193 202.711 23.0944C202.711 20.9696 203.19 19.0635 204.148 17.3761C205.128 15.6678 206.45 14.345 208.117 13.4076C209.783 12.4493 211.627 11.9702 213.648 11.9702C215.689 11.9702 217.543 12.4493 219.21 13.4076C220.877 14.345 222.189 15.6574 223.147 17.3448C224.105 19.0322 224.585 20.9488 224.585 23.0944C224.585 25.2401 224.105 27.1567 223.147 28.8441C222.189 30.5315 220.877 31.8543 219.21 32.8126C217.543 33.75 215.689 34.2187 213.648 34.2187ZM213.648 31.7501C215.169 31.7501 216.533 31.396 217.741 30.6877C218.97 29.9794 219.929 28.9691 220.616 27.6567C221.324 26.3442 221.679 24.8235 221.679 23.0944C221.679 21.3446 221.324 19.8238 220.616 18.5322C219.929 17.2198 218.981 16.2095 217.773 15.5012C216.564 14.7929 215.189 14.4388 213.648 14.4388C212.106 14.4388 210.731 14.7929 209.523 15.5012C208.315 16.2095 207.357 17.2198 206.648 18.5322C205.961 19.8238 205.617 21.3446 205.617 23.0944C205.617 24.8235 205.961 26.3442 206.648 27.6567C207.357 28.9691 208.315 29.9794 209.523 30.6877C210.752 31.396 212.127 31.7501 213.648 31.7501ZM255.712 12.2201L249.4 34H246.212L241.15 16.4699L235.901 34L232.744 34.0312L226.651 12.2201H229.682L234.432 30.6877L239.682 12.2201H242.869L247.868 30.6252L252.649 12.2201H255.712Z" fill="white"/>
</svg>
