<svg width="31" height="30" viewBox="0 0 31 30" fill="none" xmlns="http://www.w3.org/2000/svg">
<path d="M17.1472 16.155L20.6139 18.0466C20.8863 18.1952 21.1909 18.2758 21.5014 18.2816C21.812 18.2875 22.1193 18.2183 22.3972 18.08L23.4563 17.5529C23.5626 17.5 23.6793 17.4709 23.798 17.4679C23.9168 17.4648 24.0348 17.4877 24.1437 17.5351C24.2526 17.5825 24.3497 17.6531 24.4282 17.7419C24.5066 17.8308 24.5645 17.9357 24.5977 18.0493L25.1597 19.971C25.2364 20.2344 25.3693 20.4781 25.5495 20.6856L27.2141 22.5979L28.0537 21.8736L26.3904 19.9626C26.3146 19.8752 26.2587 19.7726 26.2264 19.6617L25.6645 17.74C25.5857 17.4708 25.4486 17.2222 25.2626 17.0116C25.0767 16.8011 24.8466 16.6337 24.5886 16.5215C24.3305 16.4093 24.0509 16.3548 23.7694 16.3621C23.4878 16.3693 23.2114 16.4381 22.9595 16.5635L21.9004 17.0906C21.7832 17.149 21.6535 17.1782 21.5225 17.1758C21.3914 17.1734 21.2629 17.1394 21.1479 17.0768L17.6811 15.1853C17.5287 15.1012 17.4073 14.9707 17.3347 14.8129C17.2622 14.6552 17.2422 14.4784 17.2778 14.3086L18.1064 10.4482C18.1272 10.3534 18.178 10.2678 18.2514 10.204C18.3249 10.1402 18.417 10.1017 18.5141 10.094L22.135 9.82366C22.3808 9.80533 22.6187 9.72936 22.8294 9.60196C23.0401 9.47457 23.2175 9.29936 23.3471 9.09065C23.4767 8.88195 23.5549 8.64568 23.5753 8.40113C23.5956 8.15659 23.5576 7.91072 23.4643 7.68362L23.3922 7.50831C23.2702 7.21354 23.0605 6.96301 22.7912 6.79043C22.522 6.61785 22.2061 6.53148 21.8861 6.54294L19.4217 6.6373C19.3472 6.64011 19.2739 6.61901 19.2124 6.57712C19.1509 6.53523 19.1046 6.47477 19.0803 6.40468C19.056 6.33458 19.055 6.25856 19.0774 6.18784C19.0999 6.11713 19.1445 6.05547 19.2049 6.01198L20.6511 4.97043C20.838 4.83569 20.9902 4.65887 21.0955 4.4544L22.1579 2.38389L21.1684 1.88092L20.106 3.95143C20.081 4.00007 20.0447 4.04214 20.0003 4.0742L18.5539 5.11581C18.3003 5.29843 18.1124 5.55745 18.0181 5.85457C17.9238 6.15168 17.928 6.47114 18.0301 6.76569C18.1322 7.06024 18.3268 7.31427 18.5852 7.4902C18.8435 7.66614 19.1519 7.75465 19.4646 7.74265L21.9291 7.64829C22.0215 7.64485 22.1129 7.66976 22.1907 7.71964C22.2685 7.76952 22.329 7.84198 22.3641 7.92722L22.4362 8.10232C22.4631 8.16793 22.4741 8.23896 22.4682 8.30961C22.4624 8.38026 22.4398 8.44852 22.4023 8.50882C22.3649 8.56912 22.3136 8.61974 22.2528 8.65655C22.1919 8.69335 22.1232 8.7153 22.0522 8.7206L18.4312 8.99102C18.095 9.01749 17.7762 9.15099 17.5221 9.37178C17.268 9.59257 17.092 9.88892 17.0202 10.217L16.1915 14.0772C16.107 14.4797 16.1543 14.8986 16.3262 15.2725C16.4982 15.6464 16.7859 15.9556 17.1472 16.155ZM11.339 7.41672C11.571 7.45436 11.7833 7.56919 11.9413 7.74244C12.0993 7.9157 12.1937 8.13716 12.209 8.37067L12.2128 8.43455C12.2218 8.58154 12.1989 8.72872 12.1458 8.86616C12.0927 9.00359 12.0105 9.12806 11.9049 9.23115C11.7993 9.33425 11.6726 9.41356 11.5336 9.46372C11.3945 9.51388 11.2462 9.53373 11.0988 9.52192L10.1399 9.44512C9.62163 9.40483 9.10623 9.55287 8.68915 9.86183C8.27207 10.1708 7.98158 10.6197 7.87147 11.1255L7.40026 13.3148C7.30352 13.7583 7.35182 14.2209 7.53809 14.6351C7.72437 15.0493 8.03886 15.3932 8.43558 15.6168L10.8144 16.9658C11.0311 17.0886 11.2277 17.2434 11.3976 17.4251C13.0403 19.1809 14.2211 20.5216 14.5562 21.0115C14.7522 21.297 15.0378 21.5097 15.3683 21.6162L16.0615 21.8384C16.1392 21.8633 16.2086 21.9086 16.2625 21.9696C16.3163 22.0306 16.3526 22.105 16.3673 22.1849C16.3821 22.2648 16.3748 22.3472 16.3463 22.4233C16.3178 22.4994 16.2691 22.5663 16.2054 22.6171C15.1846 23.427 13.8346 24.4719 13.1207 25.0227C12.8324 25.2461 12.5921 25.5248 12.4141 25.8424C12.2361 26.16 12.1241 26.51 12.0846 26.8715L11.8429 29.1303L12.9476 29.2474L13.1894 26.9888C13.2127 26.7753 13.2789 26.5686 13.3839 26.381C13.489 26.1935 13.6309 26.0289 13.8012 25.897C14.6761 25.2221 15.9235 24.2553 16.8981 23.4819C17.1189 23.3065 17.2879 23.0748 17.3869 22.8114C17.486 22.548 17.5115 22.2628 17.4606 21.9862C17.4098 21.7095 17.2846 21.4518 17.0983 21.2404C16.912 21.0289 16.6716 20.8717 16.4026 20.7855L15.7095 20.5633C15.6141 20.5326 15.5317 20.4712 15.4751 20.3889C14.9682 19.6475 13.2125 17.7413 12.2112 16.6711C11.9646 16.4075 11.6793 16.1828 11.3648 16.0046L8.98594 14.6556C8.79483 14.5479 8.64334 14.3821 8.5536 14.1826C8.46386 13.983 8.44059 13.7601 8.48717 13.5465L8.95837 11.3572C9.01154 11.1136 9.15145 10.8975 9.35226 10.7486C9.55307 10.5998 9.80121 10.5283 10.0508 10.5474L11.0097 10.6242C11.3157 10.6488 11.6235 10.6076 11.9121 10.5035C12.2008 10.3994 12.4636 10.2348 12.6828 10.0208C12.9021 9.80683 13.0726 9.54849 13.1828 9.26324C13.2931 8.978 13.3406 8.6725 13.322 8.36743L13.3181 8.30348C13.2862 7.81899 13.0903 7.35956 12.7624 7.00012C12.4346 6.64068 11.994 6.40243 11.5127 6.32422C11.2766 6.28702 11.0607 6.16964 10.9017 5.992L7.71315 2.42433L6.88309 3.15957L10.0715 6.72717C10.4014 7.09566 10.8492 7.33926 11.339 7.41672ZM1.98246 13.4269C3.45738 15.9108 4.51408 17.725 4.77441 18.2187C4.72886 18.4504 4.59824 19.0716 4.22585 20.7341C4.15085 21.0689 4.14838 21.4158 4.21862 21.7517C4.28885 22.0875 4.43018 22.4046 4.63317 22.6819L7.82133 27.0358L8.17609 28.144L9.2346 27.8081L8.87352 26.6807C8.84135 26.5803 8.79312 26.4856 8.73069 26.4004L5.53079 22.0303C5.42077 21.8801 5.34417 21.7083 5.3061 21.5263C5.26802 21.3444 5.26934 21.1564 5.30998 20.975C5.90575 18.3167 5.90575 18.2322 5.90575 18.1427C5.90575 17.9497 5.90575 17.9146 4.63157 15.7344C4.00247 14.6578 3.30101 13.4739 2.93882 12.8641C2.85551 12.724 2.79935 12.5695 2.77328 12.4088L2.25715 9.25074L1.16052 9.42839L1.67665 12.5867C1.72493 12.8833 1.82866 13.1683 1.98246 13.4269Z" fill="#222222"/>
<path d="M15.0599 5.55099e-05C12.0813 5.95331e-05 9.16966 0.879364 6.69307 2.52678C4.21649 4.17419 2.28622 6.51571 1.14637 9.25526C0.00652567 11.9948 -0.291711 15.0093 0.289378 17.9176C0.870466 20.8259 2.30478 23.4973 4.41094 25.5941C5.80869 26.9894 7.46904 28.0968 9.29702 28.8528C11.125 29.6088 13.0848 29.9986 15.0642 30C17.0437 30.0014 19.004 29.6142 20.833 28.8607C22.6621 28.1073 24.3239 27.0022 25.7236 25.6088C27.1233 24.2153 28.2333 22.5609 28.9902 20.74C29.7471 18.9191 30.1359 16.9676 30.1346 14.997C30.1332 13.0264 29.7416 11.0754 28.9822 9.25555C28.2228 7.43573 27.1105 5.7828 25.7089 4.3913C24.3137 2.99474 22.6541 1.88754 20.8262 1.13378C18.9983 0.380021 17.0384 -0.00532173 15.0599 5.55099e-05ZM15.0599 28.8793C7.36843 28.8793 1.11099 22.6498 1.11099 14.9927C1.11099 7.33558 7.36843 1.10609 15.0599 1.10609C22.7514 1.10609 29.0088 7.33558 29.0088 14.9927C29.0088 22.6498 22.7514 28.8793 15.0599 28.8793Z" fill="#222222"/>
</svg>
