<?xml version="1.0" encoding="UTF-8"?><!DOCTYPE svg PUBLIC "-//W3C//DTD SVG 1.1//EN" "http://www.w3.org/Graphics/SVG/1.1/DTD/svg11.dtd"><svg xmlns="http://www.w3.org/2000/svg" xmlns:xlink="http://www.w3.org/1999/xlink" version="1.1" id="Layer_1" x="0px" y="0px" width="64px" height="64px" viewBox="0 0 64 64" xml:space="preserve" fill="#CCCBC5"><path d="M31 50h2V33h17v-2H33V14h-2v17H14v2h17z"/><path d="M31.999 64h.002c8.548 0 16.584-3.33 22.627-9.373 6.044-6.043 9.371-14.08 9.371-22.628s-3.328-16.584-9.371-22.627C48.584 3.329 40.549 0 32.001 0h-.002C23.451 0 15.415 3.329 9.372 9.373 3.328 15.417.001 23.454.001 32.001s3.328 16.584 9.371 22.627C15.416 60.671 23.451 64 31.999 64zM10.786 10.787C16.452 5.121 23.986 2 32.001 2h.002c8.012 0 15.546 3.121 21.211 8.786 5.666 5.666 8.785 13.2 8.785 21.213s-3.119 15.548-8.785 21.214S40.015 62 32.001 62h-.004c-8.012 0-15.546-3.121-21.211-8.786-5.666-5.666-8.785-13.2-8.785-21.213 0-8.014 3.119-15.548 8.785-21.214z"/><metadata><rdf:RDF xmlns:rdf="http://www.w3.org/1999/02/22-rdf-syntax-ns#" xmlns:rdfs="http://www.w3.org/2000/01/rdf-schema#" xmlns:dc="http://purl.org/dc/elements/1.1/"><rdf:Description about="https://iconscout.com/legal#licenses" dc:title="arrows,circle,plus" dc:description="arrows,circle,plus" dc:publisher="Iconscout" dc:date="2017-09-21" dc:format="image/svg+xml" dc:language="en"><dc:creator><rdf:Bag><rdf:li>Dario Ferrando</rdf:li></rdf:Bag></dc:creator></rdf:Description></rdf:RDF></metadata></svg>