<svg width="42" height="42" viewBox="0 0 42 42" fill="none" xmlns="http://www.w3.org/2000/svg">
<path d="M16.5205 28.7441C19.5493 28.7441 22.4019 27.6376 24.6428 25.6353L36.7046 37.6975L37.6944 36.7076L25.6316 24.6445C29.9068 19.8518 29.7594 12.4798 25.1618 7.88219C22.8536 5.57369 19.7846 4.30255 16.5205 4.30255C13.2563 4.30255 10.1873 5.57369 7.87915 7.88219C3.1145 12.6468 3.1145 20.3998 7.87915 25.1645C10.1873 27.473 13.2563 28.7441 16.5205 28.7441ZM8.869 8.87203C10.9129 6.82809 13.6302 5.70255 16.5205 5.70255C19.4107 5.70255 22.128 6.82809 24.1719 8.87203C28.3907 13.0908 28.3907 19.9558 24.1719 24.1746C22.128 26.2186 19.4107 27.3441 16.5205 27.3441C13.6302 27.3441 10.9129 26.2186 8.869 24.1746C4.6502 19.9558 4.6502 13.0908 8.869 8.87203Z" fill="#222222"/>
</svg>
