<svg width="25" height="26" viewBox="0 0 25 26" fill="none" xmlns="http://www.w3.org/2000/svg">
<g clip-path="url(#clip0)">
<path d="M7.02442 25.2887H17.9755C18.8699 25.2887 19.5972 24.5891 19.5972 23.7295V8.81297H20.0428C20.3085 8.81297 20.5235 8.5977 20.5235 8.3322V4.82831C20.5235 4.29425 20.0892 3.85996 19.5554 3.85996H16.4743C15.7851 2.28922 14.2365 1.25024 12.5002 1.25024C10.7609 1.25024 9.19985 2.28561 8.51239 3.85996H5.44455C4.91073 3.85996 4.47644 4.29425 4.47644 4.82831V8.3322C4.47644 8.5977 4.69147 8.81297 4.95721 8.81297H5.40277V23.7295C5.40276 24.5891 6.13002 25.2887 7.02442 25.2887ZM18.6357 23.7295C18.6357 24.0591 18.3394 24.3272 17.9755 24.3272H7.02442C6.66056 24.3272 6.3643 24.0591 6.3643 23.7295V8.81297H18.6356V23.7295H18.6357ZM12.5002 2.21178C13.7073 2.21178 14.8045 2.85242 15.4083 3.85996H9.59165C10.1954 2.85242 11.2927 2.21178 12.5002 2.21178ZM5.44455 4.8215L19.562 4.82831V7.85143C18.3965 7.85143 9.01831 7.85143 5.43892 7.85143L5.44455 4.8215Z" fill="#222222"/>
<path d="M15.5693 22.8013C15.8351 22.8013 16.0501 22.586 16.0501 22.3205V11.6128C16.0501 11.3473 15.8351 11.1321 15.5693 11.1321C15.3036 11.1321 15.0886 11.3473 15.0886 11.6128V22.3205C15.0886 22.586 15.3036 22.8013 15.5693 22.8013ZM12.5002 22.8013C12.7659 22.8013 12.981 22.586 12.981 22.3205V11.6128C12.981 11.3473 12.7659 11.1321 12.5002 11.1321C12.2345 11.1321 12.0194 11.3473 12.0194 11.6128V22.3205C12.0194 22.586 12.2345 22.8013 12.5002 22.8013ZM9.4306 22.8013C9.69633 22.8013 9.91137 22.586 9.91137 22.3205V11.6128C9.91137 11.3473 9.69633 11.1321 9.4306 11.1321C9.16486 11.1321 8.94983 11.3473 8.94983 11.6128V22.3205C8.94983 22.586 9.16486 22.8013 9.4306 22.8013Z" fill="#222222"/>
</g>
<defs>
<clipPath id="clip0">
<rect width="25" height="25" fill="white" transform="translate(0 0.769531)"/>
</clipPath>
</defs>
</svg>
