<svg width="32" height="33" viewBox="0 0 32 33" fill="none" xmlns="http://www.w3.org/2000/svg">
<path d="M27.8753 32.0104H22C21.8232 32.0104 21.6536 31.9401 21.5286 31.8151C21.4036 31.6901 21.3333 31.5205 21.3333 31.3437V19.3437C21.3333 19.1669 21.4036 18.9974 21.5286 18.8723C21.6536 18.7473 21.8232 18.6771 22 18.6771H25.52L26.4093 16.0104H22C21.8232 16.0104 21.6536 15.9402 21.5286 15.8151C21.4036 15.6901 21.3333 15.5206 21.3333 15.3437V11.3438C21.3333 9.50642 22.8293 8.01042 24.6667 8.01042H26.6667V5.34376H24.6667C23.0759 5.34553 21.5508 5.97823 20.426 7.10307C19.3011 8.2279 18.6684 9.753 18.6667 11.3438V15.3437C18.6667 15.5206 18.5964 15.6901 18.4714 15.8151C18.3464 15.9402 18.1768 16.0104 18 16.0104H14.6667V18.6771H18C18.1768 18.6771 18.3464 18.7473 18.4714 18.8723C18.5964 18.9974 18.6667 19.1669 18.6667 19.3437V31.3437C18.6667 31.5205 18.5964 31.6901 18.4714 31.8151C18.3464 31.9401 18.1768 32.0104 18 32.0104L4.14118 31.8151C3.25745 31.8141 1.95823 31.3019 1.33333 30.6771C0.708441 30.0522 0.00105857 28.749 0 27.8653V4.6771C0 2.83977 2.30384 0.010437 4.14118 0.010437H27.8047C29.6421 0.010437 32 2.83977 32 4.6771V27.8653C32 29.7026 29.7126 32.0104 27.8753 32.0104ZM22.6667 30.6771H27.8047C28.9074 30.6771 30.6667 28.9679 30.6667 27.8653V4.6771C30.6667 3.57443 28.9074 1.34377 27.8047 1.34377H4.14118C3.03851 1.34377 1.33333 3.57443 1.33333 4.6771V27.8653C1.33333 28.9679 3.03851 30.6771 4.14118 30.6771H17.3333V20.0104H14C13.8232 20.0104 13.6536 19.9402 13.5286 19.8151C13.4036 19.6901 13.3333 19.5205 13.3333 19.3437V15.3437C13.3333 15.1669 13.4036 14.9974 13.5286 14.8723C13.6536 14.7473 13.8232 14.6771 14 14.6771H17.3333V11.3438C17.3333 7.29976 20.6227 4.01043 24.6667 4.01043H27.3333C27.5101 4.01043 27.6797 4.08067 27.8047 4.20569C27.9298 4.33072 28 4.50029 28 4.6771V8.67709C28 8.8539 27.9298 9.02347 27.8047 9.14849C27.6797 9.27352 27.5101 9.34376 27.3333 9.34376H24.6667C23.564 9.34376 22.6667 10.2411 22.6667 11.3438V14.6771H27.3333C27.4392 14.6768 27.5436 14.7018 27.6378 14.7499C27.7321 14.7981 27.8135 14.868 27.8753 14.9539C27.9371 15.0398 27.9775 15.1393 27.9931 15.2439C28.0088 15.3486 27.9993 15.4555 27.9653 15.5557L26.632 19.5557C26.5878 19.6884 26.503 19.8039 26.3896 19.8857C26.2762 19.9675 26.1399 20.0116 26 20.0117H22.6667V30.6771Z" fill="#222222"/>
</svg>
