<svg width="32" height="32" viewBox="0 0 32 32" fill="none" xmlns="http://www.w3.org/2000/svg">
<g clip-path="url(#clip0)">
<path d="M25.184 0.412598H6.816C3.0592 0.412598 0 3.4718 0 7.2286V25.1486C0 28.9054 3.0592 31.9646 6.816 31.9646H25.184C28.9408 31.9646 32 28.9054 32 25.1486V7.2286C32 3.4718 28.9408 0.412598 25.184 0.412598ZM30.72 25.1486C30.72 28.2014 28.2368 30.6846 25.184 30.6846H6.816C3.7632 30.6846 1.28 28.2014 1.28 25.1486V7.2286C1.28 4.1758 3.7632 1.6926 6.816 1.6926H25.184C28.2368 1.6926 30.72 4.1758 30.72 7.2286V25.1486Z" fill="#222222"/>
<path d="M16 8.31627C11.6608 8.31627 8.12799 11.8491 8.12799 16.1883C8.12799 20.5275 11.6608 24.0603 16 24.0603C20.3392 24.0603 23.872 20.5275 23.872 16.1883C23.872 11.8491 20.3392 8.31627 16 8.31627ZM16 22.7803C12.3648 22.7803 9.40799 19.8235 9.40799 16.1883C9.40799 12.5531 12.3648 9.59627 16 9.59627C19.6352 9.59627 22.592 12.5531 22.592 16.1883C22.592 19.8235 19.6352 22.7803 16 22.7803ZM25.3248 5.04587C24.1216 5.04587 23.1424 6.02507 23.1424 7.22827C23.1424 8.43147 24.1216 9.41067 25.3248 9.41067C26.528 9.41067 27.5072 8.43147 27.5072 7.22827C27.5072 6.02507 26.528 5.04587 25.3248 5.04587ZM25.3248 8.13067C24.8256 8.13067 24.4224 7.72747 24.4224 7.22827C24.4224 6.72907 24.8256 6.32587 25.3248 6.32587C25.824 6.32587 26.2272 6.72907 26.2272 7.22827C26.2272 7.72747 25.824 8.13067 25.3248 8.13067Z" fill="#222222"/>
</g>
<defs>
<clipPath id="clip0">
<rect width="32" height="31.616" fill="white" transform="translate(0 0.380219)"/>
</clipPath>
</defs>
</svg>
