<svg width="292" height="226" viewBox="0 0 292 226" fill="none" xmlns="http://www.w3.org/2000/svg">
<g filter="url(#filter0_d)">
<path d="M16.932 18.184V46H8.514V2.69H15.224L37.611 31.238V2.751H46.029V46H39.014L16.932 18.184ZM66.8114 2.69H75.3514L91.2724 46H82.6104L78.5844 35.203H63.4564L59.4914 46H50.8294L66.8114 2.69ZM77.0594 29.286L71.0814 11.413L64.8594 29.286H77.0594ZM124.363 10.071H110.516V46H102.159V10.071H88.312V2.69H124.363V10.071ZM148.101 46.305C144.644 46.305 141.696 45.7357 139.256 44.597C136.856 43.4177 134.904 41.8113 133.4 39.778C131.936 37.7447 130.858 35.447 130.167 32.885C129.475 30.2823 129.13 27.578 129.13 24.772V2.69H137.548V24.772C137.548 27.1713 137.873 29.4487 138.524 31.604C139.174 33.7593 140.272 35.508 141.818 36.85C143.363 38.192 145.437 38.863 148.04 38.863C150.724 38.863 152.838 38.192 154.384 36.85C155.929 35.4673 157.027 33.6983 157.678 31.543C158.328 29.3877 158.654 27.1307 158.654 24.772V2.69H167.011V24.772C167.011 27.7407 166.645 30.5263 165.913 33.129C165.221 35.7317 164.103 38.0293 162.558 40.022C161.053 41.974 159.101 43.5193 156.702 44.658C154.302 45.756 151.435 46.305 148.101 46.305ZM175.49 46V2.69H194.644C196.636 2.69 198.466 3.09666 200.134 3.91C201.842 4.72333 203.306 5.82133 204.526 7.204C205.786 8.58666 206.742 10.132 207.393 11.84C208.084 13.548 208.43 15.2967 208.43 17.086C208.43 19.8513 207.718 22.393 206.295 24.711C204.912 27.029 203.021 28.6963 200.622 29.713L210.504 46H201.232L192.326 31.482H183.908V46H175.49ZM183.908 24.101H194.461C196.047 24.101 197.348 23.43 198.365 22.088C199.422 20.7053 199.951 19.038 199.951 17.086C199.951 15.744 199.666 14.5443 199.097 13.487C198.527 12.4297 197.795 11.596 196.901 10.986C196.047 10.376 195.111 10.071 194.095 10.071H183.908V24.101ZM227.83 2.69H236.37L252.291 46H243.629L239.603 35.203H224.475L220.51 46H211.848L227.83 2.69ZM238.078 29.286L232.1 11.413L225.878 29.286H238.078ZM257.041 46V2.69H265.459V38.619H287.541V46H257.041ZM30.311 74.236H40.935L47.658 93.741L54.464 74.236H65.005L54.879 101.045L62.349 119.803L79.032 74.07H91.482L67.91 133H58.033L47.658 108.266L37.366 133H27.489L4 74.07H16.284L33.05 119.803L40.354 101.045L30.311 74.236ZM120.398 133.415C116.082 133.415 112.154 132.585 108.612 130.925C105.126 129.265 102.111 127.024 99.5654 124.202C97.0754 121.325 95.1388 118.115 93.7554 114.574C92.3721 110.977 91.6804 107.298 91.6804 103.535C91.6804 99.6063 92.3998 95.8713 93.8384 92.33C95.2771 88.7333 97.2968 85.5517 99.8974 82.785C102.498 79.963 105.541 77.7497 109.027 76.145C112.569 74.485 116.442 73.655 120.647 73.655C124.908 73.655 128.781 74.5127 132.267 76.228C135.809 77.9433 138.824 80.2397 141.314 83.117C143.86 85.9943 145.796 89.2313 147.124 92.828C148.508 96.3693 149.199 99.9937 149.199 103.701C149.199 107.574 148.48 111.309 147.041 114.906C145.603 118.447 143.583 121.629 140.982 124.451C138.437 127.218 135.394 129.403 131.852 131.008C128.366 132.613 124.548 133.415 120.398 133.415ZM103.3 103.535C103.3 106.966 103.964 110.175 105.292 113.163C106.676 116.151 108.64 118.586 111.185 120.467C113.786 122.348 116.885 123.289 120.481 123.289C124.189 123.289 127.315 122.321 129.86 120.384C132.406 118.447 134.342 115.957 135.67 112.914C136.998 109.871 137.662 106.744 137.662 103.535C137.662 100.104 136.971 96.895 135.587 93.907C134.204 90.919 132.212 88.512 129.611 86.686C127.066 84.8047 124.023 83.864 120.481 83.864C116.774 83.864 113.648 84.8323 111.102 86.769C108.557 88.7057 106.62 91.1957 105.292 94.239C103.964 97.227 103.3 100.326 103.3 103.535ZM183.135 133.415C178.819 133.415 174.89 132.585 171.349 130.925C167.863 129.265 164.847 127.024 162.302 124.202C159.812 121.325 157.875 118.115 156.492 114.574C155.108 110.977 154.417 107.298 154.417 103.535C154.417 99.6063 155.136 95.8713 156.575 92.33C158.013 88.7333 160.033 85.5517 162.634 82.785C165.234 79.963 168.278 77.7497 171.764 76.145C175.305 74.485 179.178 73.655 183.384 73.655C187.644 73.655 191.518 74.5127 195.004 76.228C198.545 77.9433 201.561 80.2397 204.051 83.117C206.596 85.9943 208.533 89.2313 209.861 92.828C211.244 96.3693 211.936 99.9937 211.936 103.701C211.936 107.574 211.216 111.309 209.778 114.906C208.339 118.447 206.319 121.629 203.719 124.451C201.173 127.218 198.13 129.403 194.589 131.008C191.103 132.613 187.285 133.415 183.135 133.415ZM166.037 103.535C166.037 106.966 166.701 110.175 168.029 113.163C169.412 116.151 171.376 118.586 173.922 120.467C176.522 122.348 179.621 123.289 183.218 123.289C186.925 123.289 190.051 122.321 192.597 120.384C195.142 118.447 197.079 115.957 198.407 112.914C199.735 109.871 200.399 106.744 200.399 103.535C200.399 100.104 199.707 96.895 198.324 93.907C196.94 90.919 194.948 88.512 192.348 86.686C189.802 84.8047 186.759 83.864 183.218 83.864C179.51 83.864 176.384 84.8323 173.839 86.769C171.293 88.7057 169.357 91.1957 168.029 94.239C166.701 97.227 166.037 100.326 166.037 103.535ZM220.722 133V74.07H242.136C248.555 74.07 253.922 75.398 258.238 78.054C262.554 80.6547 265.791 84.196 267.949 88.678C270.107 93.1047 271.186 98.0293 271.186 103.452C271.186 109.428 269.996 114.629 267.617 119.056C265.238 123.483 261.862 126.913 257.491 129.348C253.12 131.783 248.001 133 242.136 133H220.722ZM259.649 103.452C259.649 99.634 258.957 96.2863 257.574 93.409C256.191 90.4763 254.199 88.2077 251.598 86.603C248.997 84.943 245.843 84.113 242.136 84.113H232.176V122.957H242.136C245.899 122.957 249.08 122.127 251.681 120.467C254.282 118.752 256.246 116.428 257.574 113.495C258.957 110.507 259.649 107.159 259.649 103.452ZM48.574 206.373C48.574 209.133 47.861 211.456 46.435 213.342C45.009 215.182 43.077 216.585 40.639 217.551C38.247 218.517 35.625 219 32.773 219H9.106V170.01H35.326C37.626 170.01 39.604 170.631 41.26 171.873C42.916 173.069 44.204 174.633 45.124 176.565C46.044 178.497 46.504 180.475 46.504 182.499C46.504 184.891 45.906 187.145 44.71 189.261C43.514 191.331 41.766 192.872 39.466 193.884C42.272 194.712 44.48 196.207 46.09 198.369C47.746 200.531 48.574 203.199 48.574 206.373ZM18.628 178.152V190.503H31.324C32.888 190.503 34.245 189.951 35.395 188.847C36.545 187.743 37.12 186.225 37.12 184.293C37.12 182.453 36.591 180.981 35.533 179.877C34.521 178.727 33.256 178.152 31.738 178.152H18.628ZM38.983 204.579C38.983 202.785 38.431 201.244 37.327 199.956C36.223 198.668 34.866 198.024 33.256 198.024H18.628V210.927H32.773C34.521 210.927 35.993 210.306 37.189 209.064C38.385 207.822 38.983 206.327 38.983 204.579ZM76.9114 219.345C73.3234 219.345 70.0574 218.655 67.1134 217.275C64.2154 215.895 61.7084 214.032 59.5924 211.686C57.5224 209.294 55.9124 206.626 54.7624 203.682C53.6124 200.692 53.0374 197.633 53.0374 194.505C53.0374 191.239 53.6354 188.134 54.8314 185.19C56.0274 182.2 57.7064 179.555 59.8684 177.255C62.0304 174.909 64.5604 173.069 67.4584 171.735C70.4024 170.355 73.6224 169.665 77.1184 169.665C80.6604 169.665 83.8804 170.378 86.7784 171.804C89.7224 173.23 92.2294 175.139 94.2994 177.531C96.4154 179.923 98.0254 182.614 99.1294 185.604C100.279 188.548 100.854 191.561 100.854 194.643C100.854 197.863 100.256 200.968 99.0604 203.958C97.8644 206.902 96.1854 209.547 94.0234 211.893C91.9074 214.193 89.3774 216.01 86.4334 217.344C83.5354 218.678 80.3614 219.345 76.9114 219.345ZM62.6974 194.505C62.6974 197.357 63.2494 200.025 64.3534 202.509C65.5034 204.993 67.1364 207.017 69.2524 208.581C71.4144 210.145 73.9904 210.927 76.9804 210.927C80.0624 210.927 82.6614 210.122 84.7774 208.512C86.8934 206.902 88.5034 204.832 89.6074 202.302C90.7114 199.772 91.2634 197.173 91.2634 194.505C91.2634 191.653 90.6884 188.985 89.5384 186.501C88.3884 184.017 86.7324 182.016 84.5704 180.498C82.4544 178.934 79.9244 178.152 76.9804 178.152C73.8984 178.152 71.2994 178.957 69.1834 180.567C67.0674 182.177 65.4574 184.247 64.3534 186.777C63.2494 189.261 62.6974 191.837 62.6974 194.505ZM119.589 170.01H129.249L147.258 219H137.46L132.906 206.787H115.794L111.309 219H101.511L119.589 170.01ZM131.181 200.094L124.419 179.877L117.381 200.094H131.181ZM152.631 219V170.01H174.297C176.551 170.01 178.621 170.47 180.507 171.39C182.439 172.31 184.095 173.552 185.475 175.116C186.901 176.68 187.982 178.428 188.718 180.36C189.5 182.292 189.891 184.27 189.891 186.294C189.891 189.422 189.086 192.297 187.476 194.919C185.912 197.541 183.773 199.427 181.059 200.577L192.237 219H181.749L171.675 202.578H162.153V219H152.631ZM162.153 194.229H174.09C175.884 194.229 177.356 193.47 178.506 191.952C179.702 190.388 180.3 188.502 180.3 186.294C180.3 184.776 179.978 183.419 179.334 182.223C178.69 181.027 177.862 180.084 176.85 179.394C175.884 178.704 174.826 178.359 173.676 178.359H162.153V194.229ZM198.519 219V170.01H216.321C221.657 170.01 226.119 171.114 229.707 173.322C233.295 175.484 235.986 178.428 237.78 182.154C239.574 185.834 240.471 189.928 240.471 194.436C240.471 199.404 239.482 203.728 237.504 207.408C235.526 211.088 232.72 213.94 229.086 215.964C225.452 217.988 221.197 219 216.321 219H198.519ZM230.88 194.436C230.88 191.262 230.305 188.479 229.155 186.087C228.005 183.649 226.349 181.763 224.187 180.429C222.025 179.049 219.403 178.359 216.321 178.359H208.041V210.651H216.321C219.449 210.651 222.094 209.961 224.256 208.581C226.418 207.155 228.051 205.223 229.155 202.785C230.305 200.301 230.88 197.518 230.88 194.436ZM276.896 182.844C276.482 182.384 275.608 181.786 274.274 181.05C272.94 180.268 271.33 179.578 269.444 178.98C267.604 178.336 265.695 178.014 263.717 178.014C258.519 178.014 255.92 179.854 255.92 183.534C255.92 184.868 256.334 185.926 257.162 186.708C257.99 187.49 259.232 188.157 260.888 188.709C262.544 189.261 264.614 189.859 267.098 190.503C270.318 191.331 273.101 192.297 275.447 193.401C277.839 194.505 279.656 195.977 280.898 197.817C282.186 199.611 282.83 202.003 282.83 204.993C282.83 208.489 281.979 211.318 280.277 213.48C278.621 215.596 276.413 217.137 273.653 218.103C270.893 219.069 267.903 219.552 264.683 219.552C261.003 219.552 257.346 219 253.712 217.896C250.124 216.746 246.927 215.182 244.121 213.204L248.33 204.993C248.744 205.407 249.48 205.959 250.538 206.649C251.596 207.293 252.884 207.96 254.402 208.65C255.92 209.294 257.576 209.846 259.37 210.306C261.164 210.766 262.981 210.996 264.821 210.996C270.065 210.996 272.687 209.317 272.687 205.959C272.687 204.533 272.158 203.383 271.1 202.509C270.042 201.635 268.547 200.899 266.615 200.301C264.729 199.703 262.521 199.036 259.991 198.3C256.863 197.426 254.264 196.46 252.194 195.402C250.17 194.298 248.652 192.941 247.64 191.331C246.628 189.675 246.122 187.582 246.122 185.052C246.122 181.694 246.904 178.888 248.468 176.634C250.078 174.334 252.24 172.609 254.954 171.459C257.668 170.263 260.681 169.665 263.993 169.665C267.397 169.665 270.571 170.217 273.515 171.321C276.459 172.425 278.989 173.69 281.105 175.116L276.896 182.844Z" fill="#222222"/>
</g>
<defs>
<filter id="filter0_d" x="0" y="0.690002" width="291.541" height="224.862" filterUnits="userSpaceOnUse" color-interpolation-filters="sRGB">
<feFlood flood-opacity="0" result="BackgroundImageFix"/>
<feColorMatrix in="SourceAlpha" type="matrix" values="0 0 0 0 0 0 0 0 0 0 0 0 0 0 0 0 0 0 127 0"/>
<feOffset dy="2"/>
<feGaussianBlur stdDeviation="2"/>
<feColorMatrix type="matrix" values="0 0 0 0 0 0 0 0 0 0 0 0 0 0 0 0 0 0 0.65 0"/>
<feBlend mode="normal" in2="BackgroundImageFix" result="effect1_dropShadow"/>
<feBlend mode="normal" in="SourceGraphic" in2="effect1_dropShadow" result="shape"/>
</filter>
</defs>
</svg>
