<svg width="50" height="46" viewBox="0 0 50 46" fill="none" xmlns="http://www.w3.org/2000/svg">
<path d="M15.625 35.9375C14.3312 35.9375 13.2812 36.9035 13.2812 38.0938C13.2812 39.284 14.3312 40.25 15.625 40.25C16.9188 40.25 17.9688 39.284 17.9688 38.0938C17.9688 36.9035 16.9188 35.9375 15.625 35.9375ZM15.625 38.8125C15.1942 38.8125 14.8438 38.4901 14.8438 38.0938C14.8438 37.6974 15.1942 37.375 15.625 37.375C16.0558 37.375 16.4062 37.6974 16.4062 38.0938C16.4062 38.4901 16.0558 38.8125 15.625 38.8125Z" fill="#222222"/>
<path d="M37.5488 35.9375C36.2551 35.9375 35.2051 36.9035 35.2051 38.0938C35.2051 39.284 36.2551 40.25 37.5488 40.25C38.8426 40.25 39.8926 39.284 39.8926 38.0938C39.8926 36.9035 38.8426 35.9375 37.5488 35.9375ZM37.5488 38.8125C37.1181 38.8125 36.7676 38.4901 36.7676 38.0938C36.7676 37.6974 37.1181 37.375 37.5488 37.375C37.9796 37.375 38.3301 37.6974 38.3301 38.0938C38.3301 38.4901 37.9796 38.8125 37.5488 38.8125Z" fill="#222222"/>
<path d="M44 13.2L11.8561 10.5712C11.695 10.0048 11.4237 9.38011 10.6846 8.89204C9.76289 8.28348 8.27426 8 6 8V9.30008C7.84201 9.30008 9.08423 9.50369 9.69233 9.90515C10.1335 10.1964 10.2509 10.5895 10.4014 11.2043L10.399 11.2046L14.5604 30.1877C14.7992 31.3595 15.2723 32.2359 15.8756 32.8678C16.5928 33.6191 17.5319 34 18.6667 34H42.4167V32.7H18.6667C18.1989 32.7 16.773 32.71 16.1186 29.9574L15.5813 27.5069L42.4167 23.6L44 13.2ZM41.0896 22.4908L15.301 26.2275L12.1608 11.9031L42.2312 14.39L41.0896 22.4908Z" fill="#222222"/>
</svg>
