<svg width="32" height="24" viewBox="0 0 32 24" fill="none" xmlns="http://www.w3.org/2000/svg">
<g clip-path="url(#clip0)">
<path d="M13.2765 5.48551C13.0633 5.29178 12.7802 5.32879 12.5665 5.46579C12.4665 5.52023 12.3867 5.60885 12.3323 5.69961C12.2737 5.7973 12.23 5.92126 12.23 6.0549V17.6816C12.23 17.9474 12.4054 18.1214 12.5021 18.2173C12.5071 18.2223 12.512 18.2271 12.5165 18.2317C12.6452 18.3604 12.798 18.3591 12.8881 18.3583C12.8946 18.3583 12.9008 18.3582 12.9066 18.3582L12.9096 18.3582C12.9363 18.3582 12.9937 18.3583 13.0544 18.3482C13.1063 18.3395 13.1954 18.3184 13.2726 18.2537L22.1008 12.4569C22.2167 12.393 22.2845 12.287 22.3218 12.2031C22.3621 12.1123 22.3833 12.0112 22.3833 11.9216C22.3833 11.832 22.3621 11.7308 22.3218 11.64C22.2846 11.5564 22.2172 11.4508 22.1019 11.3868L13.2765 5.48551ZM20.5571 11.8682L13.53 16.4722V7.26423L20.5571 11.8682Z" fill="#222222" stroke="#222222" stroke-width="0.5"/>
<path d="M30.8434 18.3916H30.7901V18.6416C30.7901 20.8481 28.984 22.6049 26.8267 22.6049H5.17337C2.96683 22.6049 1.21003 20.7989 1.21003 18.6416V6.26826C1.21003 4.06172 3.01604 2.30493 5.17337 2.30493H26.88C29.0866 2.30493 30.8434 4.11094 30.8434 6.26826V18.3916ZM26.8267 0.951599H5.17337C2.26196 0.951599 -0.0899658 3.30353 -0.0899658 6.21493V18.6416C-0.0899658 21.553 2.26196 23.9049 5.17337 23.9049H26.88C29.7915 23.9049 32.1434 21.553 32.1434 18.6416V6.26826C32.1434 3.35686 29.7381 0.951599 26.8267 0.951599Z" fill="#222222" stroke="#222222" stroke-width="0.5"/>
</g>
<defs>
<clipPath id="clip0">
<rect width="32" height="22.9333" fill="white" transform="translate(0 0.721588)"/>
</clipPath>
</defs>
</svg>
